<svg width="0" height="0" class="hidden">
<!-- bien -->
  <symbol xmlns="http://www.w3.org/2000/svg" fill="none" stroke-width="1.5" stroke="currentColor" viewBox="0 0 24 24" id="arrow-roundsquare">
    <path stroke-linecap="round" stroke-linejoin="round" d="M19.5 12c0-1.232-.046-2.453-.138-3.662a4.006 4.006 0 0 0-3.7-3.7 48.678 48.678 0 0 0-7.324 0 4.006 4.006 0 0 0-3.7 3.7c-.017.22-.032.441-.046.662M19.5 12l3-3m-3 3-3-3m-12 3c0 1.232.046 2.453.138 3.662a4.006 4.006 0 0 0 3.7 3.7 48.656 48.656 0 0 0 7.324 0 4.006 4.006 0 0 0 3.7-3.7c.017-.22.032-.441.046-.662M4.5 12l3 3m-3-3-3 3"></path>
  </symbol>
<!-- bien -->
  <symbol xmlns="http://www.w3.org/2000/svg" fill="none" stroke-width="1.5" stroke="currentColor" viewBox="0 0 24 24" id="book-open-outline">
    <path stroke-linecap="round" stroke-linejoin="round" d="M12 6.042A8.967 8.967 0 0 0 6 3.75c-1.052 0-2.062.18-3 .512v14.25A8.987 8.987 0 0 1 6 18c2.305 0 4.408.867 6 2.292m0-14.25a8.966 8.966 0 0 1 6-2.292c1.052 0 2.062.18 3 .512v14.25A8.987 8.987 0 0 0 18 18a8.967 8.967 0 0 0-6 2.292m0-14.25v14.25"></path>
  </symbol>
<!-- bien -->
  <symbol xmlns="http://www.w3.org/2000/svg" fill="currentColor" viewBox="0 0 24 24" id="book-open-solid">
    <path d="M11.25 4.533A9.707 9.707 0 0 0 6 3a9.735 9.735 0 0 0-3.25.555.75.75 0 0 0-.5.707v14.25a.75.75 0 0 0 1 .707A8.237 8.237 0 0 1 6 18.75c1.995 0 3.823.707 5.25 1.886V4.533ZM12.75 20.636A8.214 8.214 0 0 1 18 18.75c.966 0 1.89.166 2.75.47a.75.75 0 0 0 1-.708V4.262a.75.75 0 0 0-.5-.707A9.735 9.735 0 0 0 18 3a9.707 9.707 0 0 0-5.25 1.533v16.103Z"></path>
  </symbol>
<!-- bien -->
  <symbol xmlns="http://www.w3.org/2000/svg" fill="none" stroke-width="1.5" stroke="currentColor" viewBox="0 0 24 24" id="briefcase-outline">
    <path stroke-linecap="round" stroke-linejoin="round" d="M20.25 14.15v4.25c0 1.094-.787 2.036-1.872 2.18-2.087.277-4.216.42-6.378.42s-4.291-.143-6.378-.42c-1.085-.144-1.872-1.086-1.872-2.18v-4.25m16.5 0a2.18 2.18 0 0 0 .75-1.661V8.706c0-1.081-.768-2.015-1.837-2.175a48.114 48.114 0 0 0-3.413-.387m4.5 8.006c-.194.165-.42.295-.673.38A23.978 23.978 0 0 1 12 15.75c-2.648 0-5.195-.429-7.577-1.22a2.016 2.016 0 0 1-.673-.38m0 0A2.18 2.18 0 0 1 3 12.489V8.706c0-1.081.768-2.015 1.837-2.175a48.111 48.111 0 0 1 3.413-.387m7.5 0V5.25A2.25 2.25 0 0 0 13.5 3h-3a2.25 2.25 0 0 0-2.25 2.25v.894m7.5 0a48.667 48.667 0 0 0-7.5 0M12 12.75h.008v.008H12v-.008Z"></path>
  </symbol>
<!-- bien -->
  <symbol xmlns="http://www.w3.org/2000/svg" fill="currentColor" viewBox="0 0 24 24" id="briefcase-solid">
    <path fill-rule="evenodd" d="M7.5 5.25a3 3 0 0 1 3-3h3a3 3 0 0 1 3 3v.205c.933.085 1.857.197 2.774.334 1.454.218 2.476 1.483 2.476 2.917v3.033c0 1.211-.734 2.352-1.936 2.752A24.726 24.726 0 0 1 12 15.75c-2.73 0-5.357-.442-7.814-1.259-1.202-.4-1.936-1.541-1.936-2.752V8.706c0-1.434 1.022-2.7 2.476-2.917A48.814 48.814 0 0 1 7.5 5.455V5.25Zm7.5 0v.09a49.488 49.488 0 0 0-6 0v-.09a1.5 1.5 0 0 1 1.5-1.5h3a1.5 1.5 0 0 1 1.5 1.5Zm-3 8.25a.75.75 0 1 0 0-1.5.75.75 0 0 0 0 1.5Z" clip-rule="evenodd"></path>
    <path d="M3 18.4v-2.796a4.3 4.3 0 0 0 .713.31A26.226 26.226 0 0 0 12 17.25c2.892 0 5.68-.468 8.287-1.335.252-.084.49-.189.713-.311V18.4c0 1.452-1.047 2.728-2.523 2.923-2.12.282-4.282.427-6.477.427a49.19 49.19 0 0 1-6.477-.427C4.047 21.128 3 19.852 3 18.4Z"></path>
  </symbol>
<!-- bien -->
  <symbol xmlns="http://www.w3.org/2000/svg" fill="none" stroke-width="1.5" stroke="currentColor" viewBox="0 0 24 24" id="calendar-outline">
    <path stroke-linecap="round" stroke-linejoin="round" d="M6.75 3v2.25M17.25 3v2.25M3 18.75V7.5a2.25 2.25 0 0 1 2.25-2.25h13.5A2.25 2.25 0 0 1 21 7.5v11.25m-18 0A2.25 2.25 0 0 0 5.25 21h13.5A2.25 2.25 0 0 0 21 18.75m-18 0v-7.5A2.25 2.25 0 0 1 5.25 9h13.5A2.25 2.25 0 0 1 21 11.25v7.5"></path>
  </symbol>
<!-- bien -->
  <symbol xmlns="http://www.w3.org/2000/svg" fill="currentColor" stroke-width="1.5" viewBox="0 0 24 24" id="calendar-solid">
    <path fill-rule="evenodd" d="M6.75 2.25A.75.75 0 0 1 7.5 3v1.5h9V3A.75.75 0 0 1 18 3v1.5h.75a3 3 0 0 1 3 3v11.25a3 3 0 0 1-3 3H5.25a3 3 0 0 1-3-3V7.5a3 3 0 0 1 3-3H6V3a.75.75 0 0 1 .75-.75Zm13.5 9a1.5 1.5 0 0 0-1.5-1.5H5.25a1.5 1.5 0 0 0-1.5 1.5v7.5a1.5 1.5 0 0 0 1.5 1.5h13.5a1.5 1.5 0 0 0 1.5-1.5v-7.5Z" clip-rule="evenodd" />
  </symbol>
<!-- bien -->
  <symbol xmlns="http://www.w3.org/2000/svg" fill="none" stroke-width="1.5" stroke="currentColor" viewBox="0 0 24 24" id="comand-line-outline">
    <path stroke-linecap="round" stroke-linejoin="round" d="m6.75 7.5 3 2.25-3 2.25m4.5 0h3m-9 8.25h13.5A2.25 2.25 0 0 0 21 18V6a2.25 2.25 0 0 0-2.25-2.25H5.25A2.25 2.25 0 0 0 3 6v12a2.25 2.25 0 0 0 2.25 2.25Z"></path>
  </symbol>
<!-- bien -->
  <symbol xmlns="http://www.w3.org/2000/svg" fill="none" stroke-width="1.5" stroke="currentColor" viewBox="0 0 24 24" id="config-outline">
    <path stroke-linecap="round" stroke-linejoin="round" d="M11.42 15.17 17.25 21A2.652 2.652 0 0 0 21 17.25l-5.877-5.877M11.42 15.17l2.496-3.03c.317-.384.74-.626 1.208-.766M11.42 15.17l-4.655 5.653a2.548 2.548 0 1 1-3.586-3.586l6.837-5.63m5.108-.233c.55-.164 1.163-.188 1.743-.14a4.5 4.5 0 0 0 4.486-6.336l-3.276 3.277a3.004 3.004 0 0 1-2.25-2.25l3.276-3.276a4.5 4.5 0 0 0-6.336 4.486c.091 1.076-.071 2.264-.904 2.95l-.102.085m-1.745 1.437L5.909 7.5H4.5L2.25 3.75l1.5-1.5L7.5 4.5v1.409l4.26 4.26m-1.745 1.437 1.745-1.437m6.615 8.206L15.75 15.75M4.867 19.125h.008v.008h-.008v-.008Z"></path>
  </symbol>
<!-- bien -->
  <symbol xmlns="http://www.w3.org/2000/svg" fill="currentColor" viewBox="0 0 24 24" id="config-solid">
    <path fill-rule="evenodd" d="M12 6.75a5.25 5.25 0 0 1 6.775-5.025.75.75 0 0 1 .313 1.248l-3.32 3.319c.063.475.276.934.641 1.299.365.365.824.578 1.3.64l3.318-3.319a.75.75 0 0 1 1.248.313 5.25 5.25 0 0 1-5.472 6.756c-1.018-.086-1.87.1-2.309.634L7.344 21.3A3.298 3.298 0 1 1 2.7 16.657l8.684-7.151c.533-.44.72-1.291.634-2.309A5.342 5.342 0 0 1 12 6.75ZM4.117 19.125a.75.75 0 0 1 .75-.75h.008a.75.75 0 0 1 .75.75v.008a.75.75 0 0 1-.75.75h-.008a.75.75 0 0 1-.75-.75v-.008Z" clip-rule="evenodd"></path>
    <path d="m10.076 8.64-2.201-2.2V4.874a.75.75 0 0 0-.364-.643l-3.75-2.25a.75.75 0 0 0-.916.113l-.75.75a.75.75 0 0 0-.113.916l2.25 3.75a.75.75 0 0 0 .643.364h1.564l2.062 2.062 1.575-1.297Z"></path>
    <path fill-rule="evenodd" d="m12.556 17.329 4.183 4.182a3.375 3.375 0 0 0 4.773-4.773l-3.306-3.305a6.803 6.803 0 0 1-1.53.043c-.394-.034-.682-.006-.867.042a.589.589 0 0 0-.167.063l-3.086 3.748Zm3.414-1.36a.75.75 0 0 1 1.06 0l1.875 1.876a.75.75 0 1 1-1.06 1.06L15.97 17.03a.75.75 0 0 1 0-1.06Z" clip-rule="evenodd"></path>
  </symbol>
<!-- bien -->
  <symbol xmlns="http://www.w3.org/2000/svg" fill="currentColor" viewBox="0 0 24 24" id="comand-line-solid">
    <path fill-rule="evenodd" d="M2.25 6a3 3 0 0 1 3-3h13.5a3 3 0 0 1 3 3v12a3 3 0 0 1-3 3H5.25a3 3 0 0 1-3-3V6Zm3.97.97a.75.75 0 0 1 1.06 0l2.25 2.25a.75.75 0 0 1 0 1.06l-2.25 2.25a.75.75 0 0 1-1.06-1.06l1.72-1.72-1.72-1.72a.75.75 0 0 1 0-1.06Zm4.28 4.28a.75.75 0 0 0 0 1.5h3a.75.75 0 0 0 0-1.5h-3Z" clip-rule="evenodd"></path>
  </symbol>
<!-- bien -->
  <symbol xmlns="http://www.w3.org/2000/svg" fill="currentColor" viewBox="0 0 24 24" id="document-check-solid">
    <path fill-rule="evenodd" d="M9 1.5H5.625c-1.036 0-1.875.84-1.875 1.875v17.25c0 1.035.84 1.875 1.875 1.875h12.75c1.035 0 1.875-.84 1.875-1.875V12.75A3.75 3.75 0 0 0 16.5 9h-1.875a1.875 1.875 0 0 1-1.875-1.875V5.25A3.75 3.75 0 0 0 9 1.5Zm6.61 10.936a.75.75 0 1 0-1.22-.872l-3.236 4.53L9.53 14.47a.75.75 0 0 0-1.06 1.06l2.25 2.25a.75.75 0 0 0 1.14-.094l3.75-5.25Z" clip-rule="evenodd"></path>
    <path d="M12.971 1.816A5.23 5.23 0 0 1 14.25 5.25v1.875c0 .207.168.375.375.375H16.5a5.23 5.23 0 0 1 3.434 1.279 9.768 9.768 0 0 0-6.963-6.963Z"></path>
  </symbol>
<!-- bien -->
  <symbol xmlns="http://www.w3.org/2000/svg" fill="none" stroke-width="1.5" stroke="currentColor" viewBox="0 0 24 24" id="document-text-outline">
    <path stroke-linecap="round" stroke-linejoin="round" d="M19.5 14.25v-2.625a3.375 3.375 0 0 0-3.375-3.375h-1.5A1.125 1.125 0 0 1 13.5 7.125v-1.5a3.375 3.375 0 0 0-3.375-3.375H8.25m0 12.75h7.5m-7.5 3H12M10.5 2.25H5.625c-.621 0-1.125.504-1.125 1.125v17.25c0 .621.504 1.125 1.125 1.125h12.75c.621 0 1.125-.504 1.125-1.125V11.25a9 9 0 0 0-9-9Z"></path>
  </symbol>
<!-- bien -->
  <symbol xmlns="http://www.w3.org/2000/svg" fill="currentColor" viewBox="0 0 24 24" id="document-text-solid">
    <path fill-rule="evenodd" d="M5.625 1.5c-1.036 0-1.875.84-1.875 1.875v17.25c0 1.035.84 1.875 1.875 1.875h12.75c1.035 0 1.875-.84 1.875-1.875V12.75A3.75 3.75 0 0 0 16.5 9h-1.875a1.875 1.875 0 0 1-1.875-1.875V5.25A3.75 3.75 0 0 0 9 1.5H5.625ZM7.5 15a.75.75 0 0 1 .75-.75h7.5a.75.75 0 0 1 0 1.5h-7.5A.75.75 0 0 1 7.5 15Zm.75 2.25a.75.75 0 0 0 0 1.5H12a.75.75 0 0 0 0-1.5H8.25Z" clip-rule="evenodd"></path>
    <path d="M12.971 1.816A5.23 5.23 0 0 1 14.25 5.25v1.875c0 .207.168.375.375.375H16.5a5.23 5.23 0 0 1 3.434 1.279 9.768 9.768 0 0 0-6.963-6.963Z"></path>
  </symbol>
<!-- bien -->
  <symbol xmlns="http://www.w3.org/2000/svg" fill="none" stroke-width="1.5" stroke="currentColor" viewBox="0 0 24 24" id="eye-outline">
    <path stroke-linecap="round" stroke-linejoin="round" d="M2.036 12.322a1.012 1.012 0 0 1 0-.639C3.423 7.51 7.36 4.5 12 4.5c4.638 0 8.573 3.007 9.963 7.178.07.207.07.431 0 .639C20.577 16.49 16.64 19.5 12 19.5c-4.638 0-8.573-3.007-9.963-7.178Z"></path>
    <path stroke-linecap="round" stroke-linejoin="round" d="M15 12a3 3 0 1 1-6 0 3 3 0 0 1 6 0Z"></path>
  </symbol>
<!-- bien -->
  <symbol xmlns="http://www.w3.org/2000/svg" fill="currentColor" viewBox="0 0 24 24" id="eye-solid">
    <path d="M12 15a3 3 0 1 0 0-6 3 3 0 0 0 0 6Z"></path>
    <path fill-rule="evenodd" d="M1.323 11.447C2.811 6.976 7.028 3.75 12.001 3.75c4.97 0 9.185 3.223 10.675 7.69.12.362.12.752 0 1.113-1.487 4.471-5.705 7.697-10.677 7.697-4.97 0-9.186-3.223-10.675-7.69a1.762 1.762 0 0 1 0-1.113ZM17.25 12a5.25 5.25 0 1 1-10.5 0 5.25 5.25 0 0 1 10.5 0Z" clip-rule="evenodd"></path>
  </symbol>
<!-- bien -->
  <symbol xmlns="http://www.w3.org/2000/svg" fill="none" stroke-width="1.5" stroke="currentColor" viewBox="0 0 24 24" id="graduation-cap-outline">
    <path stroke-linecap="round" stroke-linejoin="round" d="M4.26 10.147a60.438 60.438 0 0 0-.491 6.347A48.62 48.62 0 0 1 12 20.904a48.62 48.62 0 0 1 8.232-4.41 60.46 60.46 0 0 0-.491-6.347m-15.482 0a50.636 50.636 0 0 0-2.658-.813A59.906 59.906 0 0 1 12 3.493a59.903 59.903 0 0 1 10.399 5.84c-.896.248-1.783.52-2.658.814m-15.482 0A50.717 50.717 0 0 1 12 13.489a50.702 50.702 0 0 1 7.74-3.342M6.75 15a.75.75 0 1 0 0-1.5.75.75 0 0 0 0 1.5Zm0 0v-3.675A55.378 55.378 0 0 1 12 8.443m-7.007 11.55A5.981 5.981 0 0 0 6.75 15.75v-1.5"></path>
  </symbol>
<!-- bien -->
  <symbol xmlns="http://www.w3.org/2000/svg" fill="none" stroke-width="1.5" stroke="currentColor" viewBox="0 0 24 24" id="home-outline">
    <path stroke-linecap="round" stroke-linejoin="round" d="m2.25 12 8.954-8.955c.44-.439 1.152-.439 1.591 0L21.75 12M4.5 9.75v10.125c0 .621.504 1.125 1.125 1.125H9.75v-4.875c0-.621.504-1.125 1.125-1.125h2.25c.621 0 1.125.504 1.125 1.125V21h4.125c.621 0 1.125-.504 1.125-1.125V9.75M8.25 21h8.25"></path>
  </symbol>
<!-- bien -->
  <symbol xmlns="http://www.w3.org/2000/svg" fill="currentColor" viewBox="0 0 24 24" id="graduation-cap-solid">
    <path d="M11.7 2.805a.75.75 0 0 1 .6 0A60.65 60.65 0 0 1 22.83 8.72a.75.75 0 0 1-.231 1.337 49.948 49.948 0 0 0-9.902 3.912l-.003.002c-.114.06-.227.119-.34.18a.75.75 0 0 1-.707 0A50.88 50.88 0 0 0 7.5 12.173v-.224c0-.131.067-.248.172-.311a54.615 54.615 0 0 1 4.653-2.52.75.75 0 0 0-.65-1.352 56.123 56.123 0 0 0-4.78 2.589 1.858 1.858 0 0 0-.859 1.228 49.803 49.803 0 0 0-4.634-1.527.75.75 0 0 1-.231-1.337A60.653 60.653 0 0 1 11.7 2.805Z"></path>
    <path d="M13.06 15.473a48.45 48.45 0 0 1 7.666-3.282c.134 1.414.22 2.843.255 4.284a.75.75 0 0 1-.46.711 47.87 47.87 0 0 0-8.105 4.342.75.75 0 0 1-.832 0 47.87 47.87 0 0 0-8.104-4.342.75.75 0 0 1-.461-.71c.035-1.442.121-2.87.255-4.286.921.304 1.83.634 2.726.99v1.27a1.5 1.5 0 0 0-.14 2.508c-.09.38-.222.753-.397 1.11.452.213.901.434 1.346.66a6.727 6.727 0 0 0 .551-1.607 1.5 1.5 0 0 0 .14-2.67v-.645a48.549 48.549 0 0 1 3.44 1.667 2.25 2.25 0 0 0 2.12 0Z"></path>
    <path d="M4.462 19.462c.42-.419.753-.89 1-1.395.453.214.902.435 1.347.662a6.742 6.742 0 0 1-1.286 1.794.75.75 0 0 1-1.06-1.06Z"></path>
  </symbol>
<!-- bien -->
  <symbol xmlns="http://www.w3.org/2000/svg" fill="currentColor" viewBox="0 0 24 24" id="home-solid">
    <path d="M11.47 3.841a.75.75 0 0 1 1.06 0l8.69 8.69a.75.75 0 1 0 1.06-1.061l-8.689-8.69a2.25 2.25 0 0 0-3.182 0l-8.69 8.69a.75.75 0 1 0 1.061 1.06l8.69-8.689Z"></path>
    <path d="m12 5.432 8.159 8.159c.03.03.06.058.091.086v6.198c0 1.035-.84 1.875-1.875 1.875H15a.75.75 0 0 1-.75-.75v-4.5a.75.75 0 0 0-.75-.75h-3a.75.75 0 0 0-.75.75V21a.75.75 0 0 1-.75.75H5.625a1.875 1.875 0 0 1-1.875-1.875v-6.198a2.29 2.29 0 0 0 .091-.086L12 5.432Z"></path>
  </symbol>
<!-- bien -->
  <symbol xmlns="http://www.w3.org/2000/svg" fill="none" stroke-width="1.5" stroke="currentColor" viewBox="0 0 24 24" id="logout">
    <path stroke-linecap="round" stroke-linejoin="round" d="M8.25 9V5.25A2.25 2.25 0 0 1 10.5 3h6a2.25 2.25 0 0 1 2.25 2.25v13.5A2.25 2.25 0 0 1 16.5 21h-6a2.25 2.25 0 0 1-2.25-2.25V15m-3 0-3-3m0 0 3-3m-3 3H15"></path>
  </symbol>
<!-- bien -->
  <symbol xmlns="http://www.w3.org/2000/svg" fill="none" stroke-width="1.5" stroke="currentColor" viewBox="0 0 24 24" id="pencil-square-outline">
    <path stroke-linecap="round" stroke-linejoin="round" d="m16.862 4.487 1.687-1.688a1.875 1.875 0 1 1 2.652 2.652L10.582 16.07a4.5 4.5 0 0 1-1.897 1.13L6 18l.8-2.685a4.5 4.5 0 0 1 1.13-1.897l8.932-8.931Zm0 0L19.5 7.125M18 14v4.75A2.25 2.25 0 0 1 15.75 21H5.25A2.25 2.25 0 0 1 3 18.75V8.25A2.25 2.25 0 0 1 5.25 6H10"></path>
  </symbol>
<!-- bien -->
  <symbol xmlns="http://www.w3.org/2000/svg" fill="currentColor" viewBox="0 0 24 24" id="pencil-square-solid">
    <path d="M21.731 2.269a2.625 2.625 0 0 0-3.712 0l-1.157 1.157 3.712 3.712 1.157-1.157a2.625 2.625 0 0 0 0-3.712ZM19.513 8.199l-3.712-3.712-8.4 8.4a5.25 5.25 0 0 0-1.32 2.214l-.8 2.685a.75.75 0 0 0 .933.933l2.685-.8a5.25 5.25 0 0 0 2.214-1.32l8.4-8.4Z"></path>
    <path d="M5.25 5.25a3 3 0 0 0-3 3v10.5a3 3 0 0 0 3 3h10.5a3 3 0 0 0 3-3V13.5a.75.75 0 0 0-1.5 0v5.25a1.5 1.5 0 0 1-1.5 1.5H5.25a1.5 1.5 0 0 1-1.5-1.5V8.25a1.5 1.5 0 0 1 1.5-1.5h5.25a.75.75 0 0 0 0-1.5H5.25Z"></path>
  </symbol>
<!-- bien -->
  <symbol xmlns="http://www.w3.org/2000/svg" fill="none" stroke-width="1.5" stroke="currentColor" viewBox="0 0 24 24" id="plus">
    <path stroke-linecap="round" stroke-linejoin="round" d="M12 4.5v15m7.5-7.5h-15"></path>
  </symbol>
<!-- bien -->
  <symbol xmlns="http://www.w3.org/2000/svg" fill="none" stroke-width="1.5" stroke="currentColor" viewBox="0 0 24 24" id="search">
    <path stroke-linecap="round" stroke-linejoin="round" d="m21 21-5.197-5.197m0 0A7.5 7.5 0 1 0 5.196 5.196a7.5 7.5 0 0 0 10.607 10.607Z"></path>
  </symbol>
<!-- bien -->
  <symbol xmlns="http://www.w3.org/2000/svg" fill="none" stroke-width="1.5" stroke="currentColor" viewBox="0 0 24 24" id="star-outline">
    <path stroke-linecap="round" stroke-linejoin="round" d="M11.48 3.499a.562.562 0 0 1 1.04 0l2.125 5.111a.563.563 0 0 0 .475.345l5.518.442c.499.04.701.663.321.988l-4.204 3.602a.563.563 0 0 0-.182.557l1.285 5.385a.562.562 0 0 1-.84.61l-4.725-2.885a.562.562 0 0 0-.586 0L6.982 20.54a.562.562 0 0 1-.84-.61l1.285-5.386a.562.562 0 0 0-.182-.557l-4.204-3.602a.562.562 0 0 1 .321-.988l5.518-.442a.563.563 0 0 0 .475-.345L11.48 3.5Z"></path>
  </symbol>
<!-- bien -->
  <symbol xmlns="http://www.w3.org/2000/svg" fill="currentColor" viewBox="0 0 24 24" id="star-solid">
    <path fill-rule="evenodd" d="M10.788 3.21c.448-1.077 1.976-1.077 2.424 0l2.082 5.006 5.404.434c1.164.093 1.636 1.545.749 2.305l-4.117 3.527 1.257 5.273c.271 1.136-.964 2.033-1.96 1.425L12 18.354 7.373 21.18c-.996.608-2.231-.29-1.96-1.425l1.257-5.273-4.117-3.527c-.887-.76-.415-2.212.749-2.305l5.404-.434 2.082-5.005Z" clip-rule="evenodd"></path>
  </symbol>
<!-- bien -->
  <symbol xmlns="http://www.w3.org/2000/svg" fill="none" stroke-width="1.5" stroke="currentColor" viewBox="0 0 24 24" id="trash-outline">
    <path stroke-linecap="round" stroke-linejoin="round" d="m14.74 9-.346 9m-4.788 0L9.26 9m9.968-3.21c.342.052.682.107 1.022.166m-1.022-.165L18.16 19.673a2.25 2.25 0 0 1-2.244 2.077H8.084a2.25 2.25 0 0 1-2.244-2.077L4.772 5.79m14.456 0a48.108 48.108 0 0 0-3.478-.397m-12 .562c.34-.059.68-.114 1.022-.165m0 0a48.11 48.11 0 0 1 3.478-.397m7.5 0v-.916c0-1.18-.91-2.164-2.09-2.201a51.964 51.964 0 0 0-3.32 0c-1.18.037-2.09 1.022-2.09 2.201v.916m7.5 0a48.667 48.667 0 0 0-7.5 0"></path>
  </symbol>
<!-- bien -->
  <symbol xmlns="http://www.w3.org/2000/svg" fill="currentColor" viewBox="0 0 24 24" id="trash-solid">
    <path fill-rule="evenodd" d="M16.5 4.478v.227a48.816 48.816 0 0 1 3.878.512.75.75 0 1 1-.256 1.478l-.209-.035-1.005 13.07a3 3 0 0 1-2.991 2.77H8.084a3 3 0 0 1-2.991-2.77L4.087 6.66l-.209.035a.75.75 0 0 1-.256-1.478A48.567 48.567 0 0 1 7.5 4.705v-.227c0-1.564 1.213-2.9 2.816-2.951a52.662 52.662 0 0 1 3.369 0c1.603.051 2.815 1.387 2.815 2.951Zm-6.136-1.452a51.196 51.196 0 0 1 3.273 0C14.39 3.05 15 3.684 15 4.478v.113a49.488 49.488 0 0 0-6 0v-.113c0-.794.609-1.428 1.364-1.452Zm-.355 5.945a.75.75 0 1 0-1.5.058l.347 9a.75.75 0 1 0 1.499-.058l-.346-9Zm5.48.058a.75.75 0 1 0-1.498-.058l-.347 9a.75.75 0 0 0 1.5.058l.345-9Z" clip-rule="evenodd"></path>
  </symbol>
<!-- bien -->
  <symbol xmlns="http://www.w3.org/2000/svg" fill="none" stroke-width="1.5" stroke="currentColor" viewBox="0 0 24 24" id="user-group-outline">
    <path stroke-linecap="round" stroke-linejoin="round" d="M18 18.72a9.094 9.094 0 0 0 3.741-.479 3 3 0 0 0-4.682-2.72m.94 3.198.001.031c0 .225-.012.447-.037.666A11.944 11.944 0 0 1 12 21c-2.17 0-4.207-.576-5.963-1.584A6.062 6.062 0 0 1 6 18.719m12 0a5.971 5.971 0 0 0-.941-3.197m0 0A5.995 5.995 0 0 0 12 12.75a5.995 5.995 0 0 0-5.058 2.772m0 0a3 3 0 0 0-4.681 2.72 8.986 8.986 0 0 0 3.74.477m.94-3.197a5.971 5.971 0 0 0-.94 3.197M15 6.75a3 3 0 1 1-6 0 3 3 0 0 1 6 0Zm6 3a2.25 2.25 0 1 1-4.5 0 2.25 2.25 0 0 1 4.5 0Zm-13.5 0a2.25 2.25 0 1 1-4.5 0 2.25 2.25 0 0 1 4.5 0Z"></path>
  </symbol>
<!-- bien -->
  <symbol xmlns="http://www.w3.org/2000/svg" fill="currentColor" viewBox="0 0 24 24" id="user-group-solid">
    <path fill-rule="evenodd" d="M8.25 6.75a3.75 3.75 0 1 1 7.5 0 3.75 3.75 0 0 1-7.5 0ZM15.75 9.75a3 3 0 1 1 6 0 3 3 0 0 1-6 0ZM2.25 9.75a3 3 0 1 1 6 0 3 3 0 0 1-6 0ZM6.31 15.117A6.745 6.745 0 0 1 12 12a6.745 6.745 0 0 1 6.709 7.498.75.75 0 0 1-.372.568A12.696 12.696 0 0 1 12 21.75c-2.305 0-4.47-.612-6.337-1.684a.75.75 0 0 1-.372-.568 6.787 6.787 0 0 1 1.019-4.38Z" clip-rule="evenodd"></path>
    <path d="M5.082 14.254a8.287 8.287 0 0 0-1.308 5.135 9.687 9.687 0 0 1-1.764-.44l-.115-.04a.563.563 0 0 1-.373-.487l-.01-.121a3.75 3.75 0 0 1 3.57-4.047ZM20.226 19.389a8.287 8.287 0 0 0-1.308-5.135 3.75 3.75 0 0 1 3.57 4.047l-.01.121a.563.563 0 0 1-.373.486l-.115.04c-.567.2-1.156.349-1.764.441Z"></path>
  </symbol>
<!-- bien -->
  <symbol xmlns="http://www.w3.org/2000/svg" fill="none" stroke-width="1.5" stroke="currentColor" viewBox="0 0 24 24" id="users-outline">
    <path stroke-linecap="round" stroke-linejoin="round" d="M15 19.128a9.38 9.38 0 0 0 2.625.372 9.337 9.337 0 0 0 4.121-.952 4.125 4.125 0 0 0-7.533-2.493M15 19.128v-.003c0-1.113-.285-2.16-.786-3.07M15 19.128v.106A12.318 12.318 0 0 1 8.624 21c-2.331 0-4.512-.645-6.374-1.766l-.001-.109a6.375 6.375 0 0 1 11.964-3.07M12 6.375a3.375 3.375 0 1 1-6.75 0 3.375 3.375 0 0 1 6.75 0Zm8.25 2.25a2.625 2.625 0 1 1-5.25 0 2.625 2.625 0 0 1 5.25 0Z" />
  </symbol>
<!-- bien -->
  <symbol xmlns="http://www.w3.org/2000/svg" fill="none" stroke-width="1.5" stroke="currentColor" viewBox="0 0 24 24" id="user-outline">
    <path stroke-linecap="round" stroke-linejoin="round" d="M15.75 6a3.75 3.75 0 1 1-7.5 0 3.75 3.75 0 0 1 7.5 0ZM4.501 20.118a7.5 7.5 0 0 1 14.998 0A17.933 17.933 0 0 1 12 21.75c-2.676 0-5.216-.584-7.499-1.632Z"></path>
  </symbol>
<!-- bien -->
  <symbol xmlns="http://www.w3.org/2000/svg" fill="currentColor" viewBox="0 0 24 24" id="user-solid">
    <path fill-rule="evenodd" d="M7.5 6a4.5 4.5 0 1 1 9 0 4.5 4.5 0 0 1-9 0ZM3.751 20.105a8.25 8.25 0 0 1 16.498 0 .75.75 0 0 1-.437.695A18.683 18.683 0 0 1 12 22.5c-2.786 0-5.433-.608-7.812-1.7a.75.75 0 0 1-.437-.695Z" clip-rule="evenodd"></path>
  </symbol>
<!-- bien -->
  <symbol xmlns="http://www.w3.org/2000/svg" fill="none" stroke-width="1.5" stroke="currentColor" viewBox="0 0 24 24" id="users-outline">
    <path stroke-linecap="round" stroke-linejoin="round" d="M15 19.128a9.38 9.38 0 0 0 2.625.372 9.337 9.337 0 0 0 4.121-.952 4.125 4.125 0 0 0-7.533-2.493M15 19.128v-.003c0-1.113-.285-2.16-.786-3.07M15 19.128v.106A12.318 12.318 0 0 1 8.624 21c-2.331 0-4.512-.645-6.374-1.766l-.001-.109a6.375 6.375 0 0 1 11.964-3.07M12 6.375a3.375 3.375 0 1 1-6.75 0 3.375 3.375 0 0 1 6.75 0Zm8.25 2.25a2.625 2.625 0 1 1-5.25 0 2.625 2.625 0 0 1 5.25 0Z"></path>
  </symbol>
<!-- bien -->
  <symbol xmlns="http://www.w3.org/2000/svg" fill="currentColor" viewBox="0 0 24 24" id="users-solid">
    <path d="M4.5 6.375a4.125 4.125 0 1 1 8.25 0 4.125 4.125 0 0 1-8.25 0ZM14.25 8.625a3.375 3.375 0 1 1 6.75 0 3.375 3.375 0 0 1-6.75 0ZM1.5 19.125a7.125 7.125 0 0 1 14.25 0v.003l-.001.119a.75.75 0 0 1-.363.63 13.067 13.067 0 0 1-6.761 1.873c-2.472 0-4.786-.684-6.76-1.873a.75.75 0 0 1-.364-.63l-.001-.122ZM17.25 19.128l-.001.144a2.25 2.25 0 0 1-.233.96 10.088 10.088 0 0 0 5.06-1.01.75.75 0 0 0 .42-.643 4.875 4.875 0 0 0-6.957-4.611 8.586 8.586 0 0 1 1.71 5.157v.003Z"></path>
  </symbol>

  <symbol xmlns="http://www.w3.org/2000/svg" fill="none" stroke-width="1.5" stroke="currentColor" viewBox="0 0 24 24" id="user-plus-outline">
    <path stroke-linecap="round" stroke-linejoin="round" d="M18 7.5v3m0 0v3m0-3h3m-3 0h-3m-2.25-4.125a3.375 3.375 0 1 1-6.75 0 3.375 3.375 0 0 1 6.75 0ZM3 19.235v-.11a6.375 6.375 0 0 1 12.75 0v.109A12.318 12.318 0 0 1 9.374 21c-2.331 0-4.512-.645-6.374-1.766Z" />
  </symbol>

  <symbol xmlns="http://www.w3.org/2000/svg" fill="currentColor" viewBox="0 0 24 24" id="user-plus-solid">
    <path d="M5.25 6.375a4.125 4.125 0 1 1 8.25 0 4.125 4.125 0 0 1-8.25 0ZM2.25 19.125a7.125 7.125 0 0 1 14.25 0v.003l-.001.119a.75.75 0 0 1-.363.63 13.067 13.067 0 0 1-6.761 1.873c-2.472 0-4.786-.684-6.76-1.873a.75.75 0 0 1-.364-.63l-.001-.122ZM18.75 7.5a.75.75 0 0 0-1.5 0v2.25H15a.75.75 0 0 0 0 1.5h2.25v2.25a.75.75 0 0 0 1.5 0v-2.25H21a.75.75 0 0 0 0-1.5h-2.25V7.5Z" />
  </symbol>

  <symbol xmlns="http://www.w3.org/2000/svg" fill="none" viewBox="0 0 24 24" stroke-width="1.5" stroke="currentColor" id="random">
    <path stroke-linecap="round" stroke-linejoin="round" d="M3 7.5 7.5 3m0 0L12 7.5M7.5 3v13.5m13.5 0L16.5 21m0 0L12 16.5m4.5 4.5V7.5" />
  </symbol>

  <symbol xmlns="http://www.w3.org/2000/svg" fill="none" viewBox="0 0 24 24" stroke-width="1.5" stroke="currentColor" id="document-check-outline">
    <path stroke-linecap="round" stroke-linejoin="round" d="M10.125 2.25h-4.5c-.621 0-1.125.504-1.125 1.125v17.25c0 .621.504 1.125 1.125 1.125h12.75c.621 0 1.125-.504 1.125-1.125v-9M10.125 2.25h.375a9 9 0 0 1 9 9v.375M10.125 2.25A3.375 3.375 0 0 1 13.5 5.625v1.5c0 .621.504 1.125 1.125 1.125h1.5a3.375 3.375 0 0 1 3.375 3.375M9 15l2.25 2.25L15 12" />
  </symbol>

  <symbol xmlns="http://www.w3.org/2000/svg" fill="none" viewBox="0 0 24 24" stroke-width="1.5" stroke="currentColor" id="arrow-trending-up">
    <path stroke-linecap="round" stroke-linejoin="round" d="M2.25 18 9 11.25l4.306 4.306a11.95 11.95 0 0 1 5.814-5.518l2.74-1.22m0 0-5.94-2.281m5.94 2.28-2.28 5.941" />
  </symbol>

  <symbol xmlns="http://www.w3.org/2000/svg" fill="none" viewBox="0 0 24 24" stroke-width="1.5" stroke="currentColor" id="key-outline">
    <path stroke-linecap="round" stroke-linejoin="round" d="M15.75 5.25a3 3 0 0 1 3 3m3 0a6 6 0 0 1-7.029 5.912c-.563-.097-1.159.026-1.563.43L10.5 17.25H8.25v2.25H6v2.25H2.25v-2.818c0-.597.237-1.17.659-1.591l6.499-6.499c.404-.404.527-1 .43-1.563A6 6 0 1 1 21.75 8.25Z" />
  </symbol>

</svg>

<svg xmlns="http://www.w3.org/2000/svg" viewBox="0 0 640 640">
<!--!Font Awesome Free v7.0.1 by @fontawesome - https://fontawesome.com License - https://fontawesome.com/license/free Copyright 2025 Fonticons, Inc.-->
<path d="M467.8 98.4C479.8 93.4 493.5 96.2 502.7 105.3L566.7 169.3C572.7 175.3 576.1 183.4 576.1 191.9C576.1 200.4 572.7 208.5 566.7 214.5L502.7 278.5C493.5 287.7 479.8 290.4 467.8 285.4C455.8 280.4 448 268.9 448 256L448 224L416 224C405.9 224 396.4 228.7 390.4 236.8L358 280L318 226.7L339.2 198.4C357.3 174.2 385.8 160 416 160L448 160L448 128C448 115.1 455.8 103.4 467.8 98.4zM218 360L258 413.3L236.8 441.6C218.7 465.8 190.2 480 160 480L96 480C78.3 480 64 465.7 64 448C64 430.3 78.3 416 96 416L160 416C170.1 416 179.6 411.3 185.6 403.2L218 360zM502.6 534.6C493.4 543.8 479.7 546.5 467.7 541.5C455.7 536.5 448 524.9 448 512L448 480L416 480C385.8 480 357.3 465.8 339.2 441.6L185.6 236.8C179.6 228.7 170.1 224 160 224L96 224C78.3 224 64 209.7 64 192C64 174.3 78.3 160 96 160L160 160C190.2 160 218.7 174.2 236.8 198.4L390.4 403.2C396.4 411.3 405.9 416 416 416L448 416L448 384C448 371.1 455.8 359.4 467.8 354.4C479.8 349.4 493.5 352.2 502.7 361.3L566.7 425.3C572.7 431.3 576.1 439.4 576.1 447.9C576.1 456.4 572.7 464.5 566.7 470.5L502.7 534.5z"/>
</svg>

<svg>
  <use xlink:href="#arrow-roundsquare"></use>
</svg>